<svg xmlns="http://www.w3.org/2000/svg" id="export" class="canvas" preserveAspectRatio="xMidYMid meet" style="" width="1486" height="139"><rect id="background" fill="#fff" pointer-events="all" width="1486" height="139"/><g id="origin" transform="translate(6.300000000000001, 6.3000000000017415) scale(1)"><g id="clusters" class="clusters"/><g id="edge-paths" class="edge-paths"><defs><marker id="arrowhead-vee" viewBox="0 0 10 10" refX="9" refY="5" markerUnits="strokeWidth" markerWidth="8" markerHeight="6" orient="auto" style="fill: rgb(0, 0, 0);"><path d="M 0 0 L 10 5 L 0 10 L 4 5 z" style="stroke-width: 1;"/></marker><marker id="arrowhead-vee-select" viewBox="0 0 10 10" refX="9" refY="5" markerUnits="strokeWidth" markerWidth="8" markerHeight="6" orient="auto" style="fill: rgb(238, 0, 0);"><path d="M 0 0 L 10 5 L 0 10 L 4 5 z" style="stroke-width: 1;"/></marker></defs><path id="edge-input_8" class="edge-path" d="M50.5625,63L52.229166666666664,63C53.895833333333336,63,57.229166666666664,63,65.15234375,63C73.07552083333333,63,85.58854166666667,63,98.1015625,63C110.61458333333333,63,123.12760416666667,63,131.05078125,63C138.97395833333334,63,142.30729166666666,63,143.97395833333334,63L145.640625,63" style="stroke: rgb(0, 0, 0); stroke-width: 1px; fill: none; marker-end: url(&quot;#arrowhead-vee&quot;);"/><path id="edge-conv2d_14" class="edge-path" d="M243.375,63L245.04166666666666,63C246.70833333333334,63,250.04166666666666,63,253.375,63C256.7083333333333,63,260.0416666666667,63,261.7083333333333,63L263.375,63" style="stroke: rgb(0, 0, 0); stroke-width: 1px; fill: none; marker-end: url(&quot;#arrowhead-vee&quot;);"/><path id="edge-max_pooling2d_14" class="edge-path" d="M348.78125,63L350.4479166666667,63C352.1145833333333,63,355.4479166666667,63,358.78125,63C362.1145833333333,63,365.4479166666667,63,367.1145833333333,63L368.78125,63" style="stroke: rgb(0, 0, 0); stroke-width: 1px; fill: none; marker-end: url(&quot;#arrowhead-vee&quot;);"/><path id="edge-re_lu_14" class="edge-path" d="M408.140625,63L409.8072916666667,63C411.4739583333333,63,414.8072916666667,63,418.140625,63C421.4739583333333,63,424.8072916666667,63,426.4739583333333,63L428.140625,63" style="stroke: rgb(0, 0, 0); stroke-width: 1px; fill: none; marker-end: url(&quot;#arrowhead-vee&quot;);"/><path id="edge-batch_normalization_21" class="edge-path" d="M541.0468826293945,63L542.7135492960612,63C544.3802159627279,63,547.7135492960612,63,551.0468826293945,63C554.3802159627279,63,557.7135492960612,63,559.3802159627279,63L561.0468826293945,63" style="stroke: rgb(0, 0, 0); stroke-width: 1px; fill: none; marker-end: url(&quot;#arrowhead-vee&quot;);"/><path id="edge-conv2d_15" class="edge-path" d="M663.7500076293945,63L665.4166742960612,63C667.0833409627279,63,670.4166742960612,63,673.7500076293945,63C677.0833409627279,63,680.4166742960612,63,682.0833409627279,63L683.7500076293945,63" style="stroke: rgb(0, 0, 0); stroke-width: 1px; fill: none; marker-end: url(&quot;#arrowhead-vee&quot;);"/><path id="edge-max_pooling2d_15" class="edge-path" d="M769.1562576293945,63L770.8229242960612,63C772.4895909627279,63,775.8229242960612,63,779.1562576293945,63C782.4895909627279,63,785.8229242960612,63,787.4895909627279,63L789.1562576293945,63" style="stroke: rgb(0, 0, 0); stroke-width: 1px; fill: none; marker-end: url(&quot;#arrowhead-vee&quot;);"/><path id="edge-re_lu_15" class="edge-path" d="M828.5156326293945,63L830.1822992960612,63C831.8489659627279,63,835.1822992960612,63,838.5156326293945,63C841.8489659627279,63,845.1822992960612,63,846.8489659627279,63L848.5156326293945,63" style="stroke: rgb(0, 0, 0); stroke-width: 1px; fill: none; marker-end: url(&quot;#arrowhead-vee&quot;);"/><path id="edge-batch_normalization_22" class="edge-path" d="M961.4218902587891,63L963.0885569254557,63C964.7552235921224,63,968.0885569254557,63,971.4218902587891,63C974.7552235921224,63,978.0885569254557,63,979.7552235921224,63L981.4218902587891,63" style="stroke: rgb(0, 0, 0); stroke-width: 1px; fill: none; marker-end: url(&quot;#arrowhead-vee&quot;);"/><path id="edge-flatten_7" class="edge-path" d="M1029.437515258789,63L1031.1041819254558,63C1032.7708485921223,63,1036.1041819254558,63,1039.437515258789,63C1042.7708485921223,63,1046.1041819254558,63,1047.7708485921223,63L1049.437515258789,63" style="stroke: rgb(0, 0, 0); stroke-width: 1px; fill: none; marker-end: url(&quot;#arrowhead-vee&quot;);"/><path id="edge-dense_17" class="edge-path" d="M1147.171890258789,63L1148.8385569254558,63C1150.5052235921223,63,1153.8385569254558,63,1157.171890258789,63C1160.5052235921223,63,1163.8385569254558,63,1165.5052235921223,63L1167.171890258789,63" style="stroke: rgb(0, 0, 0); stroke-width: 1px; fill: none; marker-end: url(&quot;#arrowhead-vee&quot;);"/><path id="edge-batch_normalization_23" class="edge-path" d="M1285.031265258789,94.20474895160376L1286.6979319254558,95.08729079300313C1288.3645985921223,95.96983263440251,1291.6979319254558,97.73491631720124,1295.031265258789,98.61745815860063C1298.3645985921223,99.5,1301.6979319254558,99.5,1303.3645985921223,99.5L1305.031265258789,99.5" style="stroke: rgb(0, 0, 0); stroke-width: 1px; fill: none; marker-end: url(&quot;#arrowhead-vee&quot;);"/><path id="edge-batch_normalization_23" class="edge-path" d="M1285.031265258789,31.79525104839624L1286.6979319254558,30.912709206996865C1288.3645985921223,30.030167365597492,1291.6979319254558,28.265083682798746,1295.4440263112385,27.382541841399373C1299.1901206970215,26.5,1303.348976135254,26.5,1305.4284038543701,26.5L1307.5078315734863,26.5" style="stroke: rgb(0, 0, 0); stroke-width: 1px; fill: none; marker-end: url(&quot;#arrowhead-vee&quot;);"/><path id="edge-dense_18" class="edge-path" d="M1392.8593978881836,99.5L1394.5260645548503,99.5C1396.1927312215169,99.5,1399.5260645548503,99.5,1402.8593978881836,99.5C1406.1927312215169,99.5,1409.5260645548503,99.5,1411.1927312215169,99.5L1412.8593978881836,99.5" style="stroke: rgb(0, 0, 0); stroke-width: 1px; fill: none; marker-end: url(&quot;#arrowhead-vee&quot;);"/><path id="edge-dense_19" class="edge-path" d="M1390.3828315734863,26.5L1392.4622592926025,26.5C1394.5416870117188,26.5,1398.7005424499512,26.5,1402.4466368357341,26.5C1406.1927312215169,26.5,1409.5260645548503,26.5,1411.1927312215169,26.5L1412.8593978881836,26.5" style="stroke: rgb(0, 0, 0); stroke-width: 1px; fill: none; marker-end: url(&quot;#arrowhead-vee&quot;);"/></g><g id="edge-labels" class="edge-labels"><text class="edge-label" id="edge-label-edge-input_8" transform="translate(70.5625,73)" style="opacity: 1; font-family: -apple-system, BlinkMacSystemFont, &quot;Segoe WPC&quot;, &quot;Segoe UI&quot;, Ubuntu, &quot;Droid Sans&quot;, sans-serif, &quot;PingFang SC&quot;; font-size: 10px;"><tspan xml:space="preserve" dy="1em" x="1">64×28×28×3</tspan></text></g><g id="nodes" class="nodes"><g id="input-name-input_8" class="node graph-input" transform="translate(0,52.5)" style="opacity: 1;"><g class="node-item graph-item-input" transform="translate(0,0)"><path d="M5,0h40.5625a5,5 0 0 1 5,5v11a5,5 0 0 1 -5,5h-40.5625a5,5 0 0 1 -5,-5v-11a5,5 0 0 1 5,-5z" style="stroke: rgb(0, 0, 0); fill: rgb(238, 238, 238); stroke-width: 0;"/><text x="6" y="14" style="font-family: -apple-system, BlinkMacSystemFont, &quot;Segoe WPC&quot;, &quot;Segoe UI&quot;, Ubuntu, &quot;Droid Sans&quot;, sans-serif, &quot;PingFang SC&quot;; font-size: 11px; text-rendering: geometricprecision;">input_8</text><title>float32[64,28,28,3]</title></g><path class="node border" d="M5,0h40.5625a5,5 0 0 1 5,5v11a5,5 0 0 1 -5,5h-40.5625a5,5 0 0 1 -5,-5v-11a5,5 0 0 1 5,-5z" style="stroke: rgb(51, 51, 51); fill: none; stroke-width: 1px;"/></g><g id="node-name-conv2d_14" class="node graph-node" transform="translate(145.640625,36.5)" style="opacity: 1;"><g class="node-item node-item-type node-item-type-layer" transform="translate(0,0)"><path d="M5,0h87.734375a5,5 0 0 1 5,5v16a0,0 0 0 1 0,0h-97.734375a0,0 0 0 1 0,0v-16a5,5 0 0 1 5,-5z" style="stroke: rgb(0, 0, 0); fill: rgb(51, 85, 136); stroke-width: 0;"/><text x="6" y="14" style="font-family: -apple-system, BlinkMacSystemFont, &quot;Segoe WPC&quot;, &quot;Segoe UI&quot;, Ubuntu, &quot;Droid Sans&quot;, sans-serif, &quot;PingFang SC&quot;; font-size: 11px; text-rendering: geometricprecision; fill: rgb(255, 255, 255);">Conv2D</text><title>conv2d_14</title></g><g class="node-attribute" transform="translate(0,21)"><path d="M0,0h97.734375a0,0 0 0 1 0,0v27a5,5 0 0 1 -5,5h-87.734375a5,5 0 0 1 -5,-5v-27a0,0 0 0 1 0,0z" style="stroke: rgb(0, 0, 0); fill: rgb(255, 255, 255); stroke-width: 0;"/><text id="initializer-conv2d_14/kernel:0" xml:space="preserve" x="6" y="12" style="font-family: -apple-system, BlinkMacSystemFont, &quot;Segoe WPC&quot;, &quot;Segoe UI&quot;, Ubuntu, &quot;Droid Sans&quot;, sans-serif, &quot;PingFang SC&quot;; font-size: 9px; font-weight: normal; text-rendering: geometricprecision;"><title>float32[3,3,3,32]</title><tspan style="font-weight: bold;">kernel</tspan><tspan>〈3×3×3×32〉</tspan></text><text id="initializer-conv2d_14/bias:0" xml:space="preserve" x="6" y="25" style="font-family: -apple-system, BlinkMacSystemFont, &quot;Segoe WPC&quot;, &quot;Segoe UI&quot;, Ubuntu, &quot;Droid Sans&quot;, sans-serif, &quot;PingFang SC&quot;; font-size: 9px; font-weight: normal; text-rendering: geometricprecision;"><title>float32[32]</title><tspan style="font-weight: bold;">bias</tspan><tspan>〈32〉</tspan></text><line class="node" x1="0" x2="97.734375" y1="0" y2="0" style="stroke: rgb(51, 51, 51); fill: none; stroke-width: 1px;"/></g><path class="node border" d="M5,0h87.734375a5,5 0 0 1 5,5v43a5,5 0 0 1 -5,5h-87.734375a5,5 0 0 1 -5,-5v-43a5,5 0 0 1 5,-5z" style="stroke: rgb(51, 51, 51); fill: none; stroke-width: 1px;"/></g><g id="node-name-max_pooling2d_14" class="node graph-node" transform="translate(263.375,52.5)" style="opacity: 1;"><g class="node-item node-item-type node-item-type-pool" transform="translate(0,0)"><path d="M5,0h75.40625a5,5 0 0 1 5,5v11a5,5 0 0 1 -5,5h-75.40625a5,5 0 0 1 -5,-5v-11a5,5 0 0 1 5,-5z" style="stroke: rgb(0, 0, 0); fill: rgb(51, 85, 51); stroke-width: 0;"/><text x="6" y="14" style="font-family: -apple-system, BlinkMacSystemFont, &quot;Segoe WPC&quot;, &quot;Segoe UI&quot;, Ubuntu, &quot;Droid Sans&quot;, sans-serif, &quot;PingFang SC&quot;; font-size: 11px; text-rendering: geometricprecision; fill: rgb(255, 255, 255);">MaxPooling2D</text><title>max_pooling2d_14</title></g><path class="node border" d="M5,0h75.40625a5,5 0 0 1 5,5v11a5,5 0 0 1 -5,5h-75.40625a5,5 0 0 1 -5,-5v-11a5,5 0 0 1 5,-5z" style="stroke: rgb(51, 51, 51); fill: none; stroke-width: 1px;"/></g><g id="node-name-re_lu_14" class="node graph-node" transform="translate(368.78125,52.5)" style="opacity: 1;"><g class="node-item node-item-type node-item-type-activation" transform="translate(0,0)"><path d="M5,0h29.359375a5,5 0 0 1 5,5v11a5,5 0 0 1 -5,5h-29.359375a5,5 0 0 1 -5,-5v-11a5,5 0 0 1 5,-5z" style="stroke: rgb(0, 0, 0); fill: rgb(112, 41, 33); stroke-width: 0;"/><text x="6" y="14" style="font-family: -apple-system, BlinkMacSystemFont, &quot;Segoe WPC&quot;, &quot;Segoe UI&quot;, Ubuntu, &quot;Droid Sans&quot;, sans-serif, &quot;PingFang SC&quot;; font-size: 11px; text-rendering: geometricprecision; fill: rgb(255, 255, 255);">ReLU</text><title>re_lu_14</title></g><path class="node border" d="M5,0h29.359375a5,5 0 0 1 5,5v11a5,5 0 0 1 -5,5h-29.359375a5,5 0 0 1 -5,-5v-11a5,5 0 0 1 5,-5z" style="stroke: rgb(51, 51, 51); fill: none; stroke-width: 1px;"/></g><g id="node-name-batch_normalization_21" class="node graph-node" transform="translate(428.140625,23.5)" style="opacity: 1;"><g class="node-item node-item-type node-item-type-normalization" transform="translate(0,0)"><path d="M5,0h102.90625a5,5 0 0 1 5,5v16a0,0 0 0 1 0,0h-112.90625a0,0 0 0 1 0,0v-16a5,5 0 0 1 5,-5z" style="stroke: rgb(0, 0, 0); fill: rgb(51, 85, 68); stroke-width: 0;"/><text x="6" y="14" style="font-family: -apple-system, BlinkMacSystemFont, &quot;Segoe WPC&quot;, &quot;Segoe UI&quot;, Ubuntu, &quot;Droid Sans&quot;, sans-serif, &quot;PingFang SC&quot;; font-size: 11px; text-rendering: geometricprecision; fill: rgb(255, 255, 255);">BatchNormalization</text><title>batch_normalization_21</title></g><g class="node-attribute" transform="translate(0,21)"><path d="M0,0h112.90625a0,0 0 0 1 0,0v53a5,5 0 0 1 -5,5h-102.90625a5,5 0 0 1 -5,-5v-53a0,0 0 0 1 0,0z" style="stroke: rgb(0, 0, 0); fill: rgb(255, 255, 255); stroke-width: 0;"/><text id="initializer-batch_normalization_21/gamma:0" xml:space="preserve" x="6" y="12" style="font-family: -apple-system, BlinkMacSystemFont, &quot;Segoe WPC&quot;, &quot;Segoe UI&quot;, Ubuntu, &quot;Droid Sans&quot;, sans-serif, &quot;PingFang SC&quot;; font-size: 9px; font-weight: normal; text-rendering: geometricprecision;"><title>float32[32]</title><tspan style="font-weight: bold;">gamma</tspan><tspan>〈32〉</tspan></text><text id="initializer-batch_normalization_21/beta:0" xml:space="preserve" x="6" y="25" style="font-family: -apple-system, BlinkMacSystemFont, &quot;Segoe WPC&quot;, &quot;Segoe UI&quot;, Ubuntu, &quot;Droid Sans&quot;, sans-serif, &quot;PingFang SC&quot;; font-size: 9px; font-weight: normal; text-rendering: geometricprecision;"><title>float32[32]</title><tspan style="font-weight: bold;">beta</tspan><tspan>〈32〉</tspan></text><text id="initializer-batch_normalization_21/moving_mean:0" xml:space="preserve" x="6" y="38" style="font-family: -apple-system, BlinkMacSystemFont, &quot;Segoe WPC&quot;, &quot;Segoe UI&quot;, Ubuntu, &quot;Droid Sans&quot;, sans-serif, &quot;PingFang SC&quot;; font-size: 9px; font-weight: normal; text-rendering: geometricprecision;"><title>float32[32]</title><tspan style="font-weight: bold;">moving_mean</tspan><tspan>〈32〉</tspan></text><text id="initializer-batch_normalization_21/moving_variance:0" xml:space="preserve" x="6" y="51" style="font-family: -apple-system, BlinkMacSystemFont, &quot;Segoe WPC&quot;, &quot;Segoe UI&quot;, Ubuntu, &quot;Droid Sans&quot;, sans-serif, &quot;PingFang SC&quot;; font-size: 9px; font-weight: normal; text-rendering: geometricprecision;"><title>float32[32]</title><tspan style="font-weight: bold;">moving_variance</tspan><tspan>〈32〉</tspan></text><line class="node" x1="0" x2="112.90625" y1="0" y2="0" style="stroke: rgb(51, 51, 51); fill: none; stroke-width: 1px;"/></g><path class="node border" d="M5,0h102.90625a5,5 0 0 1 5,5v69a5,5 0 0 1 -5,5h-102.90625a5,5 0 0 1 -5,-5v-69a5,5 0 0 1 5,-5z" style="stroke: rgb(51, 51, 51); fill: none; stroke-width: 1px;"/></g><g id="node-name-conv2d_15" class="node graph-node" transform="translate(561.0468826293945,36.5)" style="opacity: 1;"><g class="node-item node-item-type node-item-type-layer" transform="translate(0,0)"><path d="M5,0h92.703125a5,5 0 0 1 5,5v16a0,0 0 0 1 0,0h-102.703125a0,0 0 0 1 0,0v-16a5,5 0 0 1 5,-5z" style="stroke: rgb(0, 0, 0); fill: rgb(51, 85, 136); stroke-width: 0;"/><text x="6" y="14" style="font-family: -apple-system, BlinkMacSystemFont, &quot;Segoe WPC&quot;, &quot;Segoe UI&quot;, Ubuntu, &quot;Droid Sans&quot;, sans-serif, &quot;PingFang SC&quot;; font-size: 11px; text-rendering: geometricprecision; fill: rgb(255, 255, 255);">Conv2D</text><title>conv2d_15</title></g><g class="node-attribute" transform="translate(0,21)"><path d="M0,0h102.703125a0,0 0 0 1 0,0v27a5,5 0 0 1 -5,5h-92.703125a5,5 0 0 1 -5,-5v-27a0,0 0 0 1 0,0z" style="stroke: rgb(0, 0, 0); fill: rgb(255, 255, 255); stroke-width: 0;"/><text id="initializer-conv2d_15/kernel:0" xml:space="preserve" x="6" y="12" style="font-family: -apple-system, BlinkMacSystemFont, &quot;Segoe WPC&quot;, &quot;Segoe UI&quot;, Ubuntu, &quot;Droid Sans&quot;, sans-serif, &quot;PingFang SC&quot;; font-size: 9px; font-weight: normal; text-rendering: geometricprecision;"><title>float32[3,3,32,64]</title><tspan style="font-weight: bold;">kernel</tspan><tspan>〈3×3×32×64〉</tspan></text><text id="initializer-conv2d_15/bias:0" xml:space="preserve" x="6" y="25" style="font-family: -apple-system, BlinkMacSystemFont, &quot;Segoe WPC&quot;, &quot;Segoe UI&quot;, Ubuntu, &quot;Droid Sans&quot;, sans-serif, &quot;PingFang SC&quot;; font-size: 9px; font-weight: normal; text-rendering: geometricprecision;"><title>float32[64]</title><tspan style="font-weight: bold;">bias</tspan><tspan>〈64〉</tspan></text><line class="node" x1="0" x2="102.703125" y1="0" y2="0" style="stroke: rgb(51, 51, 51); fill: none; stroke-width: 1px;"/></g><path class="node border" d="M5,0h92.703125a5,5 0 0 1 5,5v43a5,5 0 0 1 -5,5h-92.703125a5,5 0 0 1 -5,-5v-43a5,5 0 0 1 5,-5z" style="stroke: rgb(51, 51, 51); fill: none; stroke-width: 1px;"/></g><g id="node-name-max_pooling2d_15" class="node graph-node" transform="translate(683.7500076293945,52.5)" style="opacity: 1;"><g class="node-item node-item-type node-item-type-pool" transform="translate(0,0)"><path d="M5,0h75.40625a5,5 0 0 1 5,5v11a5,5 0 0 1 -5,5h-75.40625a5,5 0 0 1 -5,-5v-11a5,5 0 0 1 5,-5z" style="stroke: rgb(0, 0, 0); fill: rgb(51, 85, 51); stroke-width: 0;"/><text x="6" y="14" style="font-family: -apple-system, BlinkMacSystemFont, &quot;Segoe WPC&quot;, &quot;Segoe UI&quot;, Ubuntu, &quot;Droid Sans&quot;, sans-serif, &quot;PingFang SC&quot;; font-size: 11px; text-rendering: geometricprecision; fill: rgb(255, 255, 255);">MaxPooling2D</text><title>max_pooling2d_15</title></g><path class="node border" d="M5,0h75.40625a5,5 0 0 1 5,5v11a5,5 0 0 1 -5,5h-75.40625a5,5 0 0 1 -5,-5v-11a5,5 0 0 1 5,-5z" style="stroke: rgb(51, 51, 51); fill: none; stroke-width: 1px;"/></g><g id="node-name-re_lu_15" class="node graph-node" transform="translate(789.1562576293945,52.5)" style="opacity: 1;"><g class="node-item node-item-type node-item-type-activation" transform="translate(0,0)"><path d="M5,0h29.359375a5,5 0 0 1 5,5v11a5,5 0 0 1 -5,5h-29.359375a5,5 0 0 1 -5,-5v-11a5,5 0 0 1 5,-5z" style="stroke: rgb(0, 0, 0); fill: rgb(112, 41, 33); stroke-width: 0;"/><text x="6" y="14" style="font-family: -apple-system, BlinkMacSystemFont, &quot;Segoe WPC&quot;, &quot;Segoe UI&quot;, Ubuntu, &quot;Droid Sans&quot;, sans-serif, &quot;PingFang SC&quot;; font-size: 11px; text-rendering: geometricprecision; fill: rgb(255, 255, 255);">ReLU</text><title>re_lu_15</title></g><path class="node border" d="M5,0h29.359375a5,5 0 0 1 5,5v11a5,5 0 0 1 -5,5h-29.359375a5,5 0 0 1 -5,-5v-11a5,5 0 0 1 5,-5z" style="stroke: rgb(51, 51, 51); fill: none; stroke-width: 1px;"/></g><g id="node-name-batch_normalization_22" class="node graph-node" transform="translate(848.5156326293945,23.5)" style="opacity: 1;"><g class="node-item node-item-type node-item-type-normalization" transform="translate(0,0)"><path d="M5,0h102.90625a5,5 0 0 1 5,5v16a0,0 0 0 1 0,0h-112.90625a0,0 0 0 1 0,0v-16a5,5 0 0 1 5,-5z" style="stroke: rgb(0, 0, 0); fill: rgb(51, 85, 68); stroke-width: 0;"/><text x="6" y="14" style="font-family: -apple-system, BlinkMacSystemFont, &quot;Segoe WPC&quot;, &quot;Segoe UI&quot;, Ubuntu, &quot;Droid Sans&quot;, sans-serif, &quot;PingFang SC&quot;; font-size: 11px; text-rendering: geometricprecision; fill: rgb(255, 255, 255);">BatchNormalization</text><title>batch_normalization_22</title></g><g class="node-attribute" transform="translate(0,21)"><path d="M0,0h112.90625a0,0 0 0 1 0,0v53a5,5 0 0 1 -5,5h-102.90625a5,5 0 0 1 -5,-5v-53a0,0 0 0 1 0,0z" style="stroke: rgb(0, 0, 0); fill: rgb(255, 255, 255); stroke-width: 0;"/><text id="initializer-batch_normalization_22/gamma:0" xml:space="preserve" x="6" y="12" style="font-family: -apple-system, BlinkMacSystemFont, &quot;Segoe WPC&quot;, &quot;Segoe UI&quot;, Ubuntu, &quot;Droid Sans&quot;, sans-serif, &quot;PingFang SC&quot;; font-size: 9px; font-weight: normal; text-rendering: geometricprecision;"><title>float32[64]</title><tspan style="font-weight: bold;">gamma</tspan><tspan>〈64〉</tspan></text><text id="initializer-batch_normalization_22/beta:0" xml:space="preserve" x="6" y="25" style="font-family: -apple-system, BlinkMacSystemFont, &quot;Segoe WPC&quot;, &quot;Segoe UI&quot;, Ubuntu, &quot;Droid Sans&quot;, sans-serif, &quot;PingFang SC&quot;; font-size: 9px; font-weight: normal; text-rendering: geometricprecision;"><title>float32[64]</title><tspan style="font-weight: bold;">beta</tspan><tspan>〈64〉</tspan></text><text id="initializer-batch_normalization_22/moving_mean:0" xml:space="preserve" x="6" y="38" style="font-family: -apple-system, BlinkMacSystemFont, &quot;Segoe WPC&quot;, &quot;Segoe UI&quot;, Ubuntu, &quot;Droid Sans&quot;, sans-serif, &quot;PingFang SC&quot;; font-size: 9px; font-weight: normal; text-rendering: geometricprecision;"><title>float32[64]</title><tspan style="font-weight: bold;">moving_mean</tspan><tspan>〈64〉</tspan></text><text id="initializer-batch_normalization_22/moving_variance:0" xml:space="preserve" x="6" y="51" style="font-family: -apple-system, BlinkMacSystemFont, &quot;Segoe WPC&quot;, &quot;Segoe UI&quot;, Ubuntu, &quot;Droid Sans&quot;, sans-serif, &quot;PingFang SC&quot;; font-size: 9px; font-weight: normal; text-rendering: geometricprecision;"><title>float32[64]</title><tspan style="font-weight: bold;">moving_variance</tspan><tspan>〈64〉</tspan></text><line class="node" x1="0" x2="112.90625" y1="0" y2="0" style="stroke: rgb(51, 51, 51); fill: none; stroke-width: 1px;"/></g><path class="node border" d="M5,0h102.90625a5,5 0 0 1 5,5v69a5,5 0 0 1 -5,5h-102.90625a5,5 0 0 1 -5,-5v-69a5,5 0 0 1 5,-5z" style="stroke: rgb(51, 51, 51); fill: none; stroke-width: 1px;"/></g><g id="node-name-flatten_7" class="node graph-node" transform="translate(981.4218902587891,52.5)" style="opacity: 1;"><g class="node-item node-item-type node-item-type-shape" transform="translate(0,0)"><path d="M5,0h38.015625a5,5 0 0 1 5,5v11a5,5 0 0 1 -5,5h-38.015625a5,5 0 0 1 -5,-5v-11a5,5 0 0 1 5,-5z" style="stroke: rgb(0, 0, 0); fill: rgb(108, 79, 71); stroke-width: 0;"/><text x="6" y="14" style="font-family: -apple-system, BlinkMacSystemFont, &quot;Segoe WPC&quot;, &quot;Segoe UI&quot;, Ubuntu, &quot;Droid Sans&quot;, sans-serif, &quot;PingFang SC&quot;; font-size: 11px; text-rendering: geometricprecision; fill: rgb(255, 255, 255);">Flatten</text><title>flatten_7</title></g><path class="node border" d="M5,0h38.015625a5,5 0 0 1 5,5v11a5,5 0 0 1 -5,5h-38.015625a5,5 0 0 1 -5,-5v-11a5,5 0 0 1 5,-5z" style="stroke: rgb(51, 51, 51); fill: none; stroke-width: 1px;"/></g><g id="node-name-dense_17" class="node graph-node" transform="translate(1049.437515258789,26)" style="opacity: 1;"><g class="node-item node-item-type node-item-type-layer" transform="translate(0,0)"><path d="M5,0h87.734375a5,5 0 0 1 5,5v16a0,0 0 0 1 0,0h-97.734375a0,0 0 0 1 0,0v-16a5,5 0 0 1 5,-5z" style="stroke: rgb(0, 0, 0); fill: rgb(51, 85, 136); stroke-width: 0;"/><text x="6" y="14" style="font-family: -apple-system, BlinkMacSystemFont, &quot;Segoe WPC&quot;, &quot;Segoe UI&quot;, Ubuntu, &quot;Droid Sans&quot;, sans-serif, &quot;PingFang SC&quot;; font-size: 11px; text-rendering: geometricprecision; fill: rgb(255, 255, 255);">Dense</text><title>dense_17</title></g><g class="node-attribute" transform="translate(0,21)"><path d="M0,0h97.734375a0,0 0 0 1 0,0v32a0,0 0 0 1 0,0h-97.734375a0,0 0 0 1 0,0v-32a0,0 0 0 1 0,0z" style="stroke: rgb(0, 0, 0); fill: rgb(255, 255, 255); stroke-width: 0;"/><text id="initializer-dense_17/kernel:0" xml:space="preserve" x="6" y="12" style="font-family: -apple-system, BlinkMacSystemFont, &quot;Segoe WPC&quot;, &quot;Segoe UI&quot;, Ubuntu, &quot;Droid Sans&quot;, sans-serif, &quot;PingFang SC&quot;; font-size: 9px; font-weight: normal; text-rendering: geometricprecision;"><title>float32[3136,256]</title><tspan style="font-weight: bold;">kernel</tspan><tspan>〈3136×256〉</tspan></text><text id="initializer-dense_17/bias:0" xml:space="preserve" x="6" y="25" style="font-family: -apple-system, BlinkMacSystemFont, &quot;Segoe WPC&quot;, &quot;Segoe UI&quot;, Ubuntu, &quot;Droid Sans&quot;, sans-serif, &quot;PingFang SC&quot;; font-size: 9px; font-weight: normal; text-rendering: geometricprecision;"><title>float32[256]</title><tspan style="font-weight: bold;">bias</tspan><tspan>〈256〉</tspan></text><line class="node" x1="0" x2="97.734375" y1="0" y2="0" style="stroke: rgb(51, 51, 51); fill: none; stroke-width: 1px;"/></g><g class="node-item node-item-type node-item-type-activation" transform="translate(0,53)"><path d="M0,0h97.734375a0,0 0 0 1 0,0v16a5,5 0 0 1 -5,5h-87.734375a5,5 0 0 1 -5,-5v-16a0,0 0 0 1 0,0z" style="stroke: rgb(0, 0, 0); fill: rgb(112, 41, 33); stroke-width: 0;"/><text x="6" y="14" style="font-family: -apple-system, BlinkMacSystemFont, &quot;Segoe WPC&quot;, &quot;Segoe UI&quot;, Ubuntu, &quot;Droid Sans&quot;, sans-serif, &quot;PingFang SC&quot;; font-size: 11px; text-rendering: geometricprecision; fill: rgb(255, 255, 255);">ReLU</text></g><line class="node" x1="0" x2="97.734375" y1="53" y2="53" style="stroke: rgb(51, 51, 51); fill: none; stroke-width: 1px;"/><path class="node border" d="M5,0h87.734375a5,5 0 0 1 5,5v64a5,5 0 0 1 -5,5h-87.734375a5,5 0 0 1 -5,-5v-64a5,5 0 0 1 5,-5z" style="stroke: rgb(51, 51, 51); fill: none; stroke-width: 1px;"/></g><g id="node-name-batch_normalization_23" class="node graph-node" transform="translate(1167.171890258789,23.5)" style="opacity: 1;"><g class="node-item node-item-type node-item-type-normalization" transform="translate(0,0)"><path d="M5,0h107.859375a5,5 0 0 1 5,5v16a0,0 0 0 1 0,0h-117.859375a0,0 0 0 1 0,0v-16a5,5 0 0 1 5,-5z" style="stroke: rgb(0, 0, 0); fill: rgb(51, 85, 68); stroke-width: 0;"/><text x="6" y="14" style="font-family: -apple-system, BlinkMacSystemFont, &quot;Segoe WPC&quot;, &quot;Segoe UI&quot;, Ubuntu, &quot;Droid Sans&quot;, sans-serif, &quot;PingFang SC&quot;; font-size: 11px; text-rendering: geometricprecision; fill: rgb(255, 255, 255);">BatchNormalization</text><title>batch_normalization_23</title></g><g class="node-attribute" transform="translate(0,21)"><path d="M0,0h117.859375a0,0 0 0 1 0,0v53a5,5 0 0 1 -5,5h-107.859375a5,5 0 0 1 -5,-5v-53a0,0 0 0 1 0,0z" style="stroke: rgb(0, 0, 0); fill: rgb(255, 255, 255); stroke-width: 0;"/><text id="initializer-batch_normalization_23/gamma:0" xml:space="preserve" x="6" y="12" style="font-family: -apple-system, BlinkMacSystemFont, &quot;Segoe WPC&quot;, &quot;Segoe UI&quot;, Ubuntu, &quot;Droid Sans&quot;, sans-serif, &quot;PingFang SC&quot;; font-size: 9px; font-weight: normal; text-rendering: geometricprecision;"><title>float32[256]</title><tspan style="font-weight: bold;">gamma</tspan><tspan>〈256〉</tspan></text><text id="initializer-batch_normalization_23/beta:0" xml:space="preserve" x="6" y="25" style="font-family: -apple-system, BlinkMacSystemFont, &quot;Segoe WPC&quot;, &quot;Segoe UI&quot;, Ubuntu, &quot;Droid Sans&quot;, sans-serif, &quot;PingFang SC&quot;; font-size: 9px; font-weight: normal; text-rendering: geometricprecision;"><title>float32[256]</title><tspan style="font-weight: bold;">beta</tspan><tspan>〈256〉</tspan></text><text id="initializer-batch_normalization_23/moving_mean:0" xml:space="preserve" x="6" y="38" style="font-family: -apple-system, BlinkMacSystemFont, &quot;Segoe WPC&quot;, &quot;Segoe UI&quot;, Ubuntu, &quot;Droid Sans&quot;, sans-serif, &quot;PingFang SC&quot;; font-size: 9px; font-weight: normal; text-rendering: geometricprecision;"><title>float32[256]</title><tspan style="font-weight: bold;">moving_mean</tspan><tspan>〈256〉</tspan></text><text id="initializer-batch_normalization_23/moving_variance:0" xml:space="preserve" x="6" y="51" style="font-family: -apple-system, BlinkMacSystemFont, &quot;Segoe WPC&quot;, &quot;Segoe UI&quot;, Ubuntu, &quot;Droid Sans&quot;, sans-serif, &quot;PingFang SC&quot;; font-size: 9px; font-weight: normal; text-rendering: geometricprecision;"><title>float32[256]</title><tspan style="font-weight: bold;">moving_variance</tspan><tspan>〈256〉</tspan></text><line class="node" x1="0" x2="117.859375" y1="0" y2="0" style="stroke: rgb(51, 51, 51); fill: none; stroke-width: 1px;"/></g><path class="node border" d="M5,0h107.859375a5,5 0 0 1 5,5v69a5,5 0 0 1 -5,5h-107.859375a5,5 0 0 1 -5,-5v-69a5,5 0 0 1 5,-5z" style="stroke: rgb(51, 51, 51); fill: none; stroke-width: 1px;"/></g><g id="node-name-dense_18" class="node graph-node" transform="translate(1305.031265258789,73)" style="opacity: 1;"><g class="node-item node-item-type node-item-type-layer" transform="translate(0,0)"><path d="M5,0h77.828125a5,5 0 0 1 5,5v16a0,0 0 0 1 0,0h-87.828125a0,0 0 0 1 0,0v-16a5,5 0 0 1 5,-5z" style="stroke: rgb(0, 0, 0); fill: rgb(51, 85, 136); stroke-width: 0;"/><text x="6" y="14" style="font-family: -apple-system, BlinkMacSystemFont, &quot;Segoe WPC&quot;, &quot;Segoe UI&quot;, Ubuntu, &quot;Droid Sans&quot;, sans-serif, &quot;PingFang SC&quot;; font-size: 11px; text-rendering: geometricprecision; fill: rgb(255, 255, 255);">Dense</text><title>dense_18</title></g><g class="node-attribute" transform="translate(0,21)"><path d="M0,0h87.828125a0,0 0 0 1 0,0v27a5,5 0 0 1 -5,5h-77.828125a5,5 0 0 1 -5,-5v-27a0,0 0 0 1 0,0z" style="stroke: rgb(0, 0, 0); fill: rgb(255, 255, 255); stroke-width: 0;"/><text id="initializer-dense_18/kernel:0" xml:space="preserve" x="6" y="12" style="font-family: -apple-system, BlinkMacSystemFont, &quot;Segoe WPC&quot;, &quot;Segoe UI&quot;, Ubuntu, &quot;Droid Sans&quot;, sans-serif, &quot;PingFang SC&quot;; font-size: 9px; font-weight: normal; text-rendering: geometricprecision;"><title>float32[256,43]</title><tspan style="font-weight: bold;">kernel</tspan><tspan>〈256×43〉</tspan></text><text id="initializer-dense_18/bias:0" xml:space="preserve" x="6" y="25" style="font-family: -apple-system, BlinkMacSystemFont, &quot;Segoe WPC&quot;, &quot;Segoe UI&quot;, Ubuntu, &quot;Droid Sans&quot;, sans-serif, &quot;PingFang SC&quot;; font-size: 9px; font-weight: normal; text-rendering: geometricprecision;"><title>float32[43]</title><tspan style="font-weight: bold;">bias</tspan><tspan>〈43〉</tspan></text><line class="node" x1="0" x2="87.828125" y1="0" y2="0" style="stroke: rgb(51, 51, 51); fill: none; stroke-width: 1px;"/></g><path class="node border" d="M5,0h77.828125a5,5 0 0 1 5,5v43a5,5 0 0 1 -5,5h-77.828125a5,5 0 0 1 -5,-5v-43a5,5 0 0 1 5,-5z" style="stroke: rgb(51, 51, 51); fill: none; stroke-width: 1px;"/></g><g id="node-name-dense_19" class="node graph-node" transform="translate(1307.5078315734863,0)" style="opacity: 1;"><g class="node-item node-item-type node-item-type-layer" transform="translate(0,0)"><path d="M5,0h72.875a5,5 0 0 1 5,5v16a0,0 0 0 1 0,0h-82.875a0,0 0 0 1 0,0v-16a5,5 0 0 1 5,-5z" style="stroke: rgb(0, 0, 0); fill: rgb(51, 85, 136); stroke-width: 0;"/><text x="6" y="14" style="font-family: -apple-system, BlinkMacSystemFont, &quot;Segoe WPC&quot;, &quot;Segoe UI&quot;, Ubuntu, &quot;Droid Sans&quot;, sans-serif, &quot;PingFang SC&quot;; font-size: 11px; text-rendering: geometricprecision; fill: rgb(255, 255, 255);">Dense</text><title>dense_19</title></g><g class="node-attribute" transform="translate(0,21)"><path d="M0,0h82.875a0,0 0 0 1 0,0v27a5,5 0 0 1 -5,5h-72.875a5,5 0 0 1 -5,-5v-27a0,0 0 0 1 0,0z" style="stroke: rgb(0, 0, 0); fill: rgb(255, 255, 255); stroke-width: 0;"/><text id="initializer-dense_19/kernel:0" xml:space="preserve" x="6" y="12" style="font-family: -apple-system, BlinkMacSystemFont, &quot;Segoe WPC&quot;, &quot;Segoe UI&quot;, Ubuntu, &quot;Droid Sans&quot;, sans-serif, &quot;PingFang SC&quot;; font-size: 9px; font-weight: normal; text-rendering: geometricprecision;"><title>float32[256,1]</title><tspan style="font-weight: bold;">kernel</tspan><tspan>〈256×1〉</tspan></text><text id="initializer-dense_19/bias:0" xml:space="preserve" x="6" y="25" style="font-family: -apple-system, BlinkMacSystemFont, &quot;Segoe WPC&quot;, &quot;Segoe UI&quot;, Ubuntu, &quot;Droid Sans&quot;, sans-serif, &quot;PingFang SC&quot;; font-size: 9px; font-weight: normal; text-rendering: geometricprecision;"><title>float32[1]</title><tspan style="font-weight: bold;">bias</tspan><tspan>〈1〉</tspan></text><line class="node" x1="0" x2="82.875" y1="0" y2="0" style="stroke: rgb(51, 51, 51); fill: none; stroke-width: 1px;"/></g><path class="node border" d="M5,0h72.875a5,5 0 0 1 5,5v43a5,5 0 0 1 -5,5h-72.875a5,5 0 0 1 -5,-5v-43a5,5 0 0 1 5,-5z" style="stroke: rgb(51, 51, 51); fill: none; stroke-width: 1px;"/></g><g class="node" transform="translate(1412.8593978881836,89)" style="opacity: 1;"><g class="node-item graph-item-output" transform="translate(0,0)"><path d="M5,0h50.3125a5,5 0 0 1 5,5v11a5,5 0 0 1 -5,5h-50.3125a5,5 0 0 1 -5,-5v-11a5,5 0 0 1 5,-5z" style="stroke: rgb(0, 0, 0); fill: rgb(238, 238, 238); stroke-width: 0;"/><text x="6" y="14" style="font-family: -apple-system, BlinkMacSystemFont, &quot;Segoe WPC&quot;, &quot;Segoe UI&quot;, Ubuntu, &quot;Droid Sans&quot;, sans-serif, &quot;PingFang SC&quot;; font-size: 11px; text-rendering: geometricprecision;">dense_18</text></g><path class="node border" d="M5,0h50.3125a5,5 0 0 1 5,5v11a5,5 0 0 1 -5,5h-50.3125a5,5 0 0 1 -5,-5v-11a5,5 0 0 1 5,-5z" style="stroke: rgb(51, 51, 51); fill: none; stroke-width: 1px;"/></g><g class="node" transform="translate(1412.8593978881836,16)" style="opacity: 1;"><g class="node-item graph-item-output" transform="translate(0,0)"><path d="M5,0h50.3125a5,5 0 0 1 5,5v11a5,5 0 0 1 -5,5h-50.3125a5,5 0 0 1 -5,-5v-11a5,5 0 0 1 5,-5z" style="stroke: rgb(0, 0, 0); fill: rgb(238, 238, 238); stroke-width: 0;"/><text x="6" y="14" style="font-family: -apple-system, BlinkMacSystemFont, &quot;Segoe WPC&quot;, &quot;Segoe UI&quot;, Ubuntu, &quot;Droid Sans&quot;, sans-serif, &quot;PingFang SC&quot;; font-size: 11px; text-rendering: geometricprecision;">dense_19</text></g><path class="node border" d="M5,0h50.3125a5,5 0 0 1 5,5v11a5,5 0 0 1 -5,5h-50.3125a5,5 0 0 1 -5,-5v-11a5,5 0 0 1 5,-5z" style="stroke: rgb(51, 51, 51); fill: none; stroke-width: 1px;"/></g></g></g></svg>