<svg xmlns="http://www.w3.org/2000/svg" id="export" class="canvas" preserveAspectRatio="xMidYMid meet" style="" width="1482" height="87"><rect id="background" fill="#fff" pointer-events="all" width="1482" height="87"/><g id="origin" transform="translate(3.95, 3.95) scale(1)"><g id="clusters" class="clusters"/><g id="edge-paths" class="edge-paths"><defs><marker id="arrowhead-vee" viewBox="0 0 10 10" refX="9" refY="5" markerUnits="strokeWidth" markerWidth="8" markerHeight="6" orient="auto" style="fill: rgb(0, 0, 0);"><path d="M 0 0 L 10 5 L 0 10 L 4 5 z" style="stroke-width: 1;"/></marker><marker id="arrowhead-vee-select" viewBox="0 0 10 10" refX="9" refY="5" markerUnits="strokeWidth" markerWidth="8" markerHeight="6" orient="auto" style="fill: rgb(238, 0, 0);"><path d="M 0 0 L 10 5 L 0 10 L 4 5 z" style="stroke-width: 1;"/></marker></defs><path id="edge-input_7" class="edge-path" d="M50.5625,39.5L52.229166666666664,39.5C53.895833333333336,39.5,57.229166666666664,39.5,65.15234375,39.5C73.07552083333333,39.5,85.58854166666667,39.5,98.1015625,39.5C110.61458333333333,39.5,123.12760416666667,39.5,131.05078125,39.5C138.97395833333334,39.5,142.30729166666666,39.5,143.97395833333334,39.5L145.640625,39.5" style="stroke: rgb(0, 0, 0); stroke-width: 1px; fill: none; marker-end: url(&quot;#arrowhead-vee&quot;);"/><path id="edge-conv2d_12" class="edge-path" d="M243.375,39.5L245.04166666666666,39.5C246.70833333333334,39.5,250.04166666666666,39.5,253.375,39.5C256.7083333333333,39.5,260.0416666666667,39.5,261.7083333333333,39.5L263.375,39.5" style="stroke: rgb(0, 0, 0); stroke-width: 1px; fill: none; marker-end: url(&quot;#arrowhead-vee&quot;);"/><path id="edge-max_pooling2d_12" class="edge-path" d="M348.78125,39.5L350.4479166666667,39.5C352.1145833333333,39.5,355.4479166666667,39.5,358.78125,39.5C362.1145833333333,39.5,365.4479166666667,39.5,367.1145833333333,39.5L368.78125,39.5" style="stroke: rgb(0, 0, 0); stroke-width: 1px; fill: none; marker-end: url(&quot;#arrowhead-vee&quot;);"/><path id="edge-re_lu_12" class="edge-path" d="M408.140625,39.5L409.8072916666667,39.5C411.4739583333333,39.5,414.8072916666667,39.5,418.140625,39.5C421.4739583333333,39.5,424.8072916666667,39.5,426.4739583333333,39.5L428.140625,39.5" style="stroke: rgb(0, 0, 0); stroke-width: 1px; fill: none; marker-end: url(&quot;#arrowhead-vee&quot;);"/><path id="edge-batch_normalization_18" class="edge-path" d="M541.0468826293945,39.5L542.7135492960612,39.5C544.3802159627279,39.5,547.7135492960612,39.5,551.0468826293945,39.5C554.3802159627279,39.5,557.7135492960612,39.5,559.3802159627279,39.5L561.0468826293945,39.5" style="stroke: rgb(0, 0, 0); stroke-width: 1px; fill: none; marker-end: url(&quot;#arrowhead-vee&quot;);"/><path id="edge-conv2d_13" class="edge-path" d="M663.7500076293945,39.5L665.4166742960612,39.5C667.0833409627279,39.5,670.4166742960612,39.5,673.7500076293945,39.5C677.0833409627279,39.5,680.4166742960612,39.5,682.0833409627279,39.5L683.7500076293945,39.5" style="stroke: rgb(0, 0, 0); stroke-width: 1px; fill: none; marker-end: url(&quot;#arrowhead-vee&quot;);"/><path id="edge-max_pooling2d_13" class="edge-path" d="M769.1562576293945,39.5L770.8229242960612,39.5C772.4895909627279,39.5,775.8229242960612,39.5,779.1562576293945,39.5C782.4895909627279,39.5,785.8229242960612,39.5,787.4895909627279,39.5L789.1562576293945,39.5" style="stroke: rgb(0, 0, 0); stroke-width: 1px; fill: none; marker-end: url(&quot;#arrowhead-vee&quot;);"/><path id="edge-re_lu_13" class="edge-path" d="M828.5156326293945,39.5L830.1822992960612,39.5C831.8489659627279,39.5,835.1822992960612,39.5,838.5156326293945,39.5C841.8489659627279,39.5,845.1822992960612,39.5,846.8489659627279,39.5L848.5156326293945,39.5" style="stroke: rgb(0, 0, 0); stroke-width: 1px; fill: none; marker-end: url(&quot;#arrowhead-vee&quot;);"/><path id="edge-batch_normalization_19" class="edge-path" d="M961.4218902587891,39.5L963.0885569254557,39.5C964.7552235921224,39.5,968.0885569254557,39.5,971.4218902587891,39.5C974.7552235921224,39.5,978.0885569254557,39.5,979.7552235921224,39.5L981.4218902587891,39.5" style="stroke: rgb(0, 0, 0); stroke-width: 1px; fill: none; marker-end: url(&quot;#arrowhead-vee&quot;);"/><path id="edge-flatten_6" class="edge-path" d="M1029.437515258789,39.5L1031.1041819254558,39.5C1032.7708485921223,39.5,1036.1041819254558,39.5,1039.437515258789,39.5C1042.7708485921223,39.5,1046.1041819254558,39.5,1047.7708485921223,39.5L1049.437515258789,39.5" style="stroke: rgb(0, 0, 0); stroke-width: 1px; fill: none; marker-end: url(&quot;#arrowhead-vee&quot;);"/><path id="edge-dense_15" class="edge-path" d="M1147.171890258789,39.5L1148.8385569254558,39.5C1150.5052235921223,39.5,1153.8385569254558,39.5,1157.171890258789,39.5C1160.5052235921223,39.5,1163.8385569254558,39.5,1165.5052235921223,39.5L1167.171890258789,39.5" style="stroke: rgb(0, 0, 0); stroke-width: 1px; fill: none; marker-end: url(&quot;#arrowhead-vee&quot;);"/><path id="edge-batch_normalization_20" class="edge-path" d="M1285.031265258789,39.5L1286.6979319254558,39.5C1288.3645985921223,39.5,1291.6979319254558,39.5,1295.031265258789,39.5C1298.3645985921223,39.5,1301.6979319254558,39.5,1303.3645985921223,39.5L1305.031265258789,39.5" style="stroke: rgb(0, 0, 0); stroke-width: 1px; fill: none; marker-end: url(&quot;#arrowhead-vee&quot;);"/><path id="edge-dense_16" class="edge-path" d="M1392.8593978881836,39.5L1394.5260645548503,39.5C1396.1927312215169,39.5,1399.5260645548503,39.5,1402.8593978881836,39.5C1406.1927312215169,39.5,1409.5260645548503,39.5,1411.1927312215169,39.5L1412.8593978881836,39.5" style="stroke: rgb(0, 0, 0); stroke-width: 1px; fill: none; marker-end: url(&quot;#arrowhead-vee&quot;);"/></g><g id="edge-labels" class="edge-labels"><text class="edge-label" id="edge-label-edge-input_7" transform="translate(70.5625,49.5)" style="opacity: 1; font-family: -apple-system, BlinkMacSystemFont, &quot;Segoe WPC&quot;, &quot;Segoe UI&quot;, Ubuntu, &quot;Droid Sans&quot;, sans-serif, &quot;PingFang SC&quot;; font-size: 10px;"><tspan xml:space="preserve" dy="1em" x="1">64×28×28×3</tspan></text></g><g id="nodes" class="nodes"><g id="input-name-input_7" class="node graph-input" transform="translate(0,29)" style="opacity: 1;"><g class="node-item graph-item-input" transform="translate(0,0)"><path d="M5,0h40.5625a5,5 0 0 1 5,5v11a5,5 0 0 1 -5,5h-40.5625a5,5 0 0 1 -5,-5v-11a5,5 0 0 1 5,-5z" style="stroke: rgb(0, 0, 0); fill: rgb(238, 238, 238); stroke-width: 0;"/><text x="6" y="14" style="font-family: -apple-system, BlinkMacSystemFont, &quot;Segoe WPC&quot;, &quot;Segoe UI&quot;, Ubuntu, &quot;Droid Sans&quot;, sans-serif, &quot;PingFang SC&quot;; font-size: 11px; text-rendering: geometricprecision;">input_7</text><title>float32[64,28,28,3]</title></g><path class="node border" d="M5,0h40.5625a5,5 0 0 1 5,5v11a5,5 0 0 1 -5,5h-40.5625a5,5 0 0 1 -5,-5v-11a5,5 0 0 1 5,-5z" style="stroke: rgb(51, 51, 51); fill: none; stroke-width: 1px;"/></g><g id="node-name-conv2d_12" class="node graph-node" transform="translate(145.640625,13)" style="opacity: 1;"><g class="node-item node-item-type node-item-type-layer" transform="translate(0,0)"><path d="M5,0h87.734375a5,5 0 0 1 5,5v16a0,0 0 0 1 0,0h-97.734375a0,0 0 0 1 0,0v-16a5,5 0 0 1 5,-5z" style="stroke: rgb(0, 0, 0); fill: rgb(51, 85, 136); stroke-width: 0;"/><text x="6" y="14" style="font-family: -apple-system, BlinkMacSystemFont, &quot;Segoe WPC&quot;, &quot;Segoe UI&quot;, Ubuntu, &quot;Droid Sans&quot;, sans-serif, &quot;PingFang SC&quot;; font-size: 11px; text-rendering: geometricprecision; fill: rgb(255, 255, 255);">Conv2D</text><title>conv2d_12</title></g><g class="node-attribute" transform="translate(0,21)"><path d="M0,0h97.734375a0,0 0 0 1 0,0v27a5,5 0 0 1 -5,5h-87.734375a5,5 0 0 1 -5,-5v-27a0,0 0 0 1 0,0z" style="stroke: rgb(0, 0, 0); fill: rgb(255, 255, 255); stroke-width: 0;"/><text id="initializer-conv2d_12/kernel:0" xml:space="preserve" x="6" y="12" style="font-family: -apple-system, BlinkMacSystemFont, &quot;Segoe WPC&quot;, &quot;Segoe UI&quot;, Ubuntu, &quot;Droid Sans&quot;, sans-serif, &quot;PingFang SC&quot;; font-size: 9px; font-weight: normal; text-rendering: geometricprecision;"><title>float32[3,3,3,32]</title><tspan style="font-weight: bold;">kernel</tspan><tspan>〈3×3×3×32〉</tspan></text><text id="initializer-conv2d_12/bias:0" xml:space="preserve" x="6" y="25" style="font-family: -apple-system, BlinkMacSystemFont, &quot;Segoe WPC&quot;, &quot;Segoe UI&quot;, Ubuntu, &quot;Droid Sans&quot;, sans-serif, &quot;PingFang SC&quot;; font-size: 9px; font-weight: normal; text-rendering: geometricprecision;"><title>float32[32]</title><tspan style="font-weight: bold;">bias</tspan><tspan>〈32〉</tspan></text><line class="node" x1="0" x2="97.734375" y1="0" y2="0" style="stroke: rgb(51, 51, 51); fill: none; stroke-width: 1px;"/></g><path class="node border" d="M5,0h87.734375a5,5 0 0 1 5,5v43a5,5 0 0 1 -5,5h-87.734375a5,5 0 0 1 -5,-5v-43a5,5 0 0 1 5,-5z" style="stroke: rgb(51, 51, 51); fill: none; stroke-width: 1px;"/></g><g id="node-name-max_pooling2d_12" class="node graph-node" transform="translate(263.375,29)" style="opacity: 1;"><g class="node-item node-item-type node-item-type-pool" transform="translate(0,0)"><path d="M5,0h75.40625a5,5 0 0 1 5,5v11a5,5 0 0 1 -5,5h-75.40625a5,5 0 0 1 -5,-5v-11a5,5 0 0 1 5,-5z" style="stroke: rgb(0, 0, 0); fill: rgb(51, 85, 51); stroke-width: 0;"/><text x="6" y="14" style="font-family: -apple-system, BlinkMacSystemFont, &quot;Segoe WPC&quot;, &quot;Segoe UI&quot;, Ubuntu, &quot;Droid Sans&quot;, sans-serif, &quot;PingFang SC&quot;; font-size: 11px; text-rendering: geometricprecision; fill: rgb(255, 255, 255);">MaxPooling2D</text><title>max_pooling2d_12</title></g><path class="node border" d="M5,0h75.40625a5,5 0 0 1 5,5v11a5,5 0 0 1 -5,5h-75.40625a5,5 0 0 1 -5,-5v-11a5,5 0 0 1 5,-5z" style="stroke: rgb(51, 51, 51); fill: none; stroke-width: 1px;"/></g><g id="node-name-re_lu_12" class="node graph-node" transform="translate(368.78125,29)" style="opacity: 1;"><g class="node-item node-item-type node-item-type-activation" transform="translate(0,0)"><path d="M5,0h29.359375a5,5 0 0 1 5,5v11a5,5 0 0 1 -5,5h-29.359375a5,5 0 0 1 -5,-5v-11a5,5 0 0 1 5,-5z" style="stroke: rgb(0, 0, 0); fill: rgb(112, 41, 33); stroke-width: 0;"/><text x="6" y="14" style="font-family: -apple-system, BlinkMacSystemFont, &quot;Segoe WPC&quot;, &quot;Segoe UI&quot;, Ubuntu, &quot;Droid Sans&quot;, sans-serif, &quot;PingFang SC&quot;; font-size: 11px; text-rendering: geometricprecision; fill: rgb(255, 255, 255);">ReLU</text><title>re_lu_12</title></g><path class="node border" d="M5,0h29.359375a5,5 0 0 1 5,5v11a5,5 0 0 1 -5,5h-29.359375a5,5 0 0 1 -5,-5v-11a5,5 0 0 1 5,-5z" style="stroke: rgb(51, 51, 51); fill: none; stroke-width: 1px;"/></g><g id="node-name-batch_normalization_18" class="node graph-node" transform="translate(428.140625,0)" style="opacity: 1;"><g class="node-item node-item-type node-item-type-normalization" transform="translate(0,0)"><path d="M5,0h102.90625a5,5 0 0 1 5,5v16a0,0 0 0 1 0,0h-112.90625a0,0 0 0 1 0,0v-16a5,5 0 0 1 5,-5z" style="stroke: rgb(0, 0, 0); fill: rgb(51, 85, 68); stroke-width: 0;"/><text x="6" y="14" style="font-family: -apple-system, BlinkMacSystemFont, &quot;Segoe WPC&quot;, &quot;Segoe UI&quot;, Ubuntu, &quot;Droid Sans&quot;, sans-serif, &quot;PingFang SC&quot;; font-size: 11px; text-rendering: geometricprecision; fill: rgb(255, 255, 255);">BatchNormalization</text><title>batch_normalization_18</title></g><g class="node-attribute" transform="translate(0,21)"><path d="M0,0h112.90625a0,0 0 0 1 0,0v53a5,5 0 0 1 -5,5h-102.90625a5,5 0 0 1 -5,-5v-53a0,0 0 0 1 0,0z" style="stroke: rgb(0, 0, 0); fill: rgb(255, 255, 255); stroke-width: 0;"/><text id="initializer-batch_normalization_18/gamma:0" xml:space="preserve" x="6" y="12" style="font-family: -apple-system, BlinkMacSystemFont, &quot;Segoe WPC&quot;, &quot;Segoe UI&quot;, Ubuntu, &quot;Droid Sans&quot;, sans-serif, &quot;PingFang SC&quot;; font-size: 9px; font-weight: normal; text-rendering: geometricprecision;"><title>float32[32]</title><tspan style="font-weight: bold;">gamma</tspan><tspan>〈32〉</tspan></text><text id="initializer-batch_normalization_18/beta:0" xml:space="preserve" x="6" y="25" style="font-family: -apple-system, BlinkMacSystemFont, &quot;Segoe WPC&quot;, &quot;Segoe UI&quot;, Ubuntu, &quot;Droid Sans&quot;, sans-serif, &quot;PingFang SC&quot;; font-size: 9px; font-weight: normal; text-rendering: geometricprecision;"><title>float32[32]</title><tspan style="font-weight: bold;">beta</tspan><tspan>〈32〉</tspan></text><text id="initializer-batch_normalization_18/moving_mean:0" xml:space="preserve" x="6" y="38" style="font-family: -apple-system, BlinkMacSystemFont, &quot;Segoe WPC&quot;, &quot;Segoe UI&quot;, Ubuntu, &quot;Droid Sans&quot;, sans-serif, &quot;PingFang SC&quot;; font-size: 9px; font-weight: normal; text-rendering: geometricprecision;"><title>float32[32]</title><tspan style="font-weight: bold;">moving_mean</tspan><tspan>〈32〉</tspan></text><text id="initializer-batch_normalization_18/moving_variance:0" xml:space="preserve" x="6" y="51" style="font-family: -apple-system, BlinkMacSystemFont, &quot;Segoe WPC&quot;, &quot;Segoe UI&quot;, Ubuntu, &quot;Droid Sans&quot;, sans-serif, &quot;PingFang SC&quot;; font-size: 9px; font-weight: normal; text-rendering: geometricprecision;"><title>float32[32]</title><tspan style="font-weight: bold;">moving_variance</tspan><tspan>〈32〉</tspan></text><line class="node" x1="0" x2="112.90625" y1="0" y2="0" style="stroke: rgb(51, 51, 51); fill: none; stroke-width: 1px;"/></g><path class="node border" d="M5,0h102.90625a5,5 0 0 1 5,5v69a5,5 0 0 1 -5,5h-102.90625a5,5 0 0 1 -5,-5v-69a5,5 0 0 1 5,-5z" style="stroke: rgb(51, 51, 51); fill: none; stroke-width: 1px;"/></g><g id="node-name-conv2d_13" class="node graph-node" transform="translate(561.0468826293945,13)" style="opacity: 1;"><g class="node-item node-item-type node-item-type-layer" transform="translate(0,0)"><path d="M5,0h92.703125a5,5 0 0 1 5,5v16a0,0 0 0 1 0,0h-102.703125a0,0 0 0 1 0,0v-16a5,5 0 0 1 5,-5z" style="stroke: rgb(0, 0, 0); fill: rgb(51, 85, 136); stroke-width: 0;"/><text x="6" y="14" style="font-family: -apple-system, BlinkMacSystemFont, &quot;Segoe WPC&quot;, &quot;Segoe UI&quot;, Ubuntu, &quot;Droid Sans&quot;, sans-serif, &quot;PingFang SC&quot;; font-size: 11px; text-rendering: geometricprecision; fill: rgb(255, 255, 255);">Conv2D</text><title>conv2d_13</title></g><g class="node-attribute" transform="translate(0,21)"><path d="M0,0h102.703125a0,0 0 0 1 0,0v27a5,5 0 0 1 -5,5h-92.703125a5,5 0 0 1 -5,-5v-27a0,0 0 0 1 0,0z" style="stroke: rgb(0, 0, 0); fill: rgb(255, 255, 255); stroke-width: 0;"/><text id="initializer-conv2d_13/kernel:0" xml:space="preserve" x="6" y="12" style="font-family: -apple-system, BlinkMacSystemFont, &quot;Segoe WPC&quot;, &quot;Segoe UI&quot;, Ubuntu, &quot;Droid Sans&quot;, sans-serif, &quot;PingFang SC&quot;; font-size: 9px; font-weight: normal; text-rendering: geometricprecision;"><title>float32[3,3,32,64]</title><tspan style="font-weight: bold;">kernel</tspan><tspan>〈3×3×32×64〉</tspan></text><text id="initializer-conv2d_13/bias:0" xml:space="preserve" x="6" y="25" style="font-family: -apple-system, BlinkMacSystemFont, &quot;Segoe WPC&quot;, &quot;Segoe UI&quot;, Ubuntu, &quot;Droid Sans&quot;, sans-serif, &quot;PingFang SC&quot;; font-size: 9px; font-weight: normal; text-rendering: geometricprecision;"><title>float32[64]</title><tspan style="font-weight: bold;">bias</tspan><tspan>〈64〉</tspan></text><line class="node" x1="0" x2="102.703125" y1="0" y2="0" style="stroke: rgb(51, 51, 51); fill: none; stroke-width: 1px;"/></g><path class="node border" d="M5,0h92.703125a5,5 0 0 1 5,5v43a5,5 0 0 1 -5,5h-92.703125a5,5 0 0 1 -5,-5v-43a5,5 0 0 1 5,-5z" style="stroke: rgb(51, 51, 51); fill: none; stroke-width: 1px;"/></g><g id="node-name-max_pooling2d_13" class="node graph-node" transform="translate(683.7500076293945,29)" style="opacity: 1;"><g class="node-item node-item-type node-item-type-pool" transform="translate(0,0)"><path d="M5,0h75.40625a5,5 0 0 1 5,5v11a5,5 0 0 1 -5,5h-75.40625a5,5 0 0 1 -5,-5v-11a5,5 0 0 1 5,-5z" style="stroke: rgb(0, 0, 0); fill: rgb(51, 85, 51); stroke-width: 0;"/><text x="6" y="14" style="font-family: -apple-system, BlinkMacSystemFont, &quot;Segoe WPC&quot;, &quot;Segoe UI&quot;, Ubuntu, &quot;Droid Sans&quot;, sans-serif, &quot;PingFang SC&quot;; font-size: 11px; text-rendering: geometricprecision; fill: rgb(255, 255, 255);">MaxPooling2D</text><title>max_pooling2d_13</title></g><path class="node border" d="M5,0h75.40625a5,5 0 0 1 5,5v11a5,5 0 0 1 -5,5h-75.40625a5,5 0 0 1 -5,-5v-11a5,5 0 0 1 5,-5z" style="stroke: rgb(51, 51, 51); fill: none; stroke-width: 1px;"/></g><g id="node-name-re_lu_13" class="node graph-node" transform="translate(789.1562576293945,29)" style="opacity: 1;"><g class="node-item node-item-type node-item-type-activation" transform="translate(0,0)"><path d="M5,0h29.359375a5,5 0 0 1 5,5v11a5,5 0 0 1 -5,5h-29.359375a5,5 0 0 1 -5,-5v-11a5,5 0 0 1 5,-5z" style="stroke: rgb(0, 0, 0); fill: rgb(112, 41, 33); stroke-width: 0;"/><text x="6" y="14" style="font-family: -apple-system, BlinkMacSystemFont, &quot;Segoe WPC&quot;, &quot;Segoe UI&quot;, Ubuntu, &quot;Droid Sans&quot;, sans-serif, &quot;PingFang SC&quot;; font-size: 11px; text-rendering: geometricprecision; fill: rgb(255, 255, 255);">ReLU</text><title>re_lu_13</title></g><path class="node border" d="M5,0h29.359375a5,5 0 0 1 5,5v11a5,5 0 0 1 -5,5h-29.359375a5,5 0 0 1 -5,-5v-11a5,5 0 0 1 5,-5z" style="stroke: rgb(51, 51, 51); fill: none; stroke-width: 1px;"/></g><g id="node-name-batch_normalization_19" class="node graph-node" transform="translate(848.5156326293945,0)" style="opacity: 1;"><g class="node-item node-item-type node-item-type-normalization" transform="translate(0,0)"><path d="M5,0h102.90625a5,5 0 0 1 5,5v16a0,0 0 0 1 0,0h-112.90625a0,0 0 0 1 0,0v-16a5,5 0 0 1 5,-5z" style="stroke: rgb(0, 0, 0); fill: rgb(51, 85, 68); stroke-width: 0;"/><text x="6" y="14" style="font-family: -apple-system, BlinkMacSystemFont, &quot;Segoe WPC&quot;, &quot;Segoe UI&quot;, Ubuntu, &quot;Droid Sans&quot;, sans-serif, &quot;PingFang SC&quot;; font-size: 11px; text-rendering: geometricprecision; fill: rgb(255, 255, 255);">BatchNormalization</text><title>batch_normalization_19</title></g><g class="node-attribute" transform="translate(0,21)"><path d="M0,0h112.90625a0,0 0 0 1 0,0v53a5,5 0 0 1 -5,5h-102.90625a5,5 0 0 1 -5,-5v-53a0,0 0 0 1 0,0z" style="stroke: rgb(0, 0, 0); fill: rgb(255, 255, 255); stroke-width: 0;"/><text id="initializer-batch_normalization_19/gamma:0" xml:space="preserve" x="6" y="12" style="font-family: -apple-system, BlinkMacSystemFont, &quot;Segoe WPC&quot;, &quot;Segoe UI&quot;, Ubuntu, &quot;Droid Sans&quot;, sans-serif, &quot;PingFang SC&quot;; font-size: 9px; font-weight: normal; text-rendering: geometricprecision;"><title>float32[64]</title><tspan style="font-weight: bold;">gamma</tspan><tspan>〈64〉</tspan></text><text id="initializer-batch_normalization_19/beta:0" xml:space="preserve" x="6" y="25" style="font-family: -apple-system, BlinkMacSystemFont, &quot;Segoe WPC&quot;, &quot;Segoe UI&quot;, Ubuntu, &quot;Droid Sans&quot;, sans-serif, &quot;PingFang SC&quot;; font-size: 9px; font-weight: normal; text-rendering: geometricprecision;"><title>float32[64]</title><tspan style="font-weight: bold;">beta</tspan><tspan>〈64〉</tspan></text><text id="initializer-batch_normalization_19/moving_mean:0" xml:space="preserve" x="6" y="38" style="font-family: -apple-system, BlinkMacSystemFont, &quot;Segoe WPC&quot;, &quot;Segoe UI&quot;, Ubuntu, &quot;Droid Sans&quot;, sans-serif, &quot;PingFang SC&quot;; font-size: 9px; font-weight: normal; text-rendering: geometricprecision;"><title>float32[64]</title><tspan style="font-weight: bold;">moving_mean</tspan><tspan>〈64〉</tspan></text><text id="initializer-batch_normalization_19/moving_variance:0" xml:space="preserve" x="6" y="51" style="font-family: -apple-system, BlinkMacSystemFont, &quot;Segoe WPC&quot;, &quot;Segoe UI&quot;, Ubuntu, &quot;Droid Sans&quot;, sans-serif, &quot;PingFang SC&quot;; font-size: 9px; font-weight: normal; text-rendering: geometricprecision;"><title>float32[64]</title><tspan style="font-weight: bold;">moving_variance</tspan><tspan>〈64〉</tspan></text><line class="node" x1="0" x2="112.90625" y1="0" y2="0" style="stroke: rgb(51, 51, 51); fill: none; stroke-width: 1px;"/></g><path class="node border" d="M5,0h102.90625a5,5 0 0 1 5,5v69a5,5 0 0 1 -5,5h-102.90625a5,5 0 0 1 -5,-5v-69a5,5 0 0 1 5,-5z" style="stroke: rgb(51, 51, 51); fill: none; stroke-width: 1px;"/></g><g id="node-name-flatten_6" class="node graph-node" transform="translate(981.4218902587891,29)" style="opacity: 1;"><g class="node-item node-item-type node-item-type-shape" transform="translate(0,0)"><path d="M5,0h38.015625a5,5 0 0 1 5,5v11a5,5 0 0 1 -5,5h-38.015625a5,5 0 0 1 -5,-5v-11a5,5 0 0 1 5,-5z" style="stroke: rgb(0, 0, 0); fill: rgb(108, 79, 71); stroke-width: 0;"/><text x="6" y="14" style="font-family: -apple-system, BlinkMacSystemFont, &quot;Segoe WPC&quot;, &quot;Segoe UI&quot;, Ubuntu, &quot;Droid Sans&quot;, sans-serif, &quot;PingFang SC&quot;; font-size: 11px; text-rendering: geometricprecision; fill: rgb(255, 255, 255);">Flatten</text><title>flatten_6</title></g><path class="node border" d="M5,0h38.015625a5,5 0 0 1 5,5v11a5,5 0 0 1 -5,5h-38.015625a5,5 0 0 1 -5,-5v-11a5,5 0 0 1 5,-5z" style="stroke: rgb(51, 51, 51); fill: none; stroke-width: 1px;"/></g><g id="node-name-dense_15" class="node graph-node" transform="translate(1049.437515258789,2.5)" style="opacity: 1;"><g class="node-item node-item-type node-item-type-layer" transform="translate(0,0)"><path d="M5,0h87.734375a5,5 0 0 1 5,5v16a0,0 0 0 1 0,0h-97.734375a0,0 0 0 1 0,0v-16a5,5 0 0 1 5,-5z" style="stroke: rgb(0, 0, 0); fill: rgb(51, 85, 136); stroke-width: 0;"/><text x="6" y="14" style="font-family: -apple-system, BlinkMacSystemFont, &quot;Segoe WPC&quot;, &quot;Segoe UI&quot;, Ubuntu, &quot;Droid Sans&quot;, sans-serif, &quot;PingFang SC&quot;; font-size: 11px; text-rendering: geometricprecision; fill: rgb(255, 255, 255);">Dense</text><title>dense_15</title></g><g class="node-attribute" transform="translate(0,21)"><path d="M0,0h97.734375a0,0 0 0 1 0,0v32a0,0 0 0 1 0,0h-97.734375a0,0 0 0 1 0,0v-32a0,0 0 0 1 0,0z" style="stroke: rgb(0, 0, 0); fill: rgb(255, 255, 255); stroke-width: 0;"/><text id="initializer-dense_15/kernel:0" xml:space="preserve" x="6" y="12" style="font-family: -apple-system, BlinkMacSystemFont, &quot;Segoe WPC&quot;, &quot;Segoe UI&quot;, Ubuntu, &quot;Droid Sans&quot;, sans-serif, &quot;PingFang SC&quot;; font-size: 9px; font-weight: normal; text-rendering: geometricprecision;"><title>float32[3136,256]</title><tspan style="font-weight: bold;">kernel</tspan><tspan>〈3136×256〉</tspan></text><text id="initializer-dense_15/bias:0" xml:space="preserve" x="6" y="25" style="font-family: -apple-system, BlinkMacSystemFont, &quot;Segoe WPC&quot;, &quot;Segoe UI&quot;, Ubuntu, &quot;Droid Sans&quot;, sans-serif, &quot;PingFang SC&quot;; font-size: 9px; font-weight: normal; text-rendering: geometricprecision;"><title>float32[256]</title><tspan style="font-weight: bold;">bias</tspan><tspan>〈256〉</tspan></text><line class="node" x1="0" x2="97.734375" y1="0" y2="0" style="stroke: rgb(51, 51, 51); fill: none; stroke-width: 1px;"/></g><g class="node-item node-item-type node-item-type-activation" transform="translate(0,53)"><path d="M0,0h97.734375a0,0 0 0 1 0,0v16a5,5 0 0 1 -5,5h-87.734375a5,5 0 0 1 -5,-5v-16a0,0 0 0 1 0,0z" style="stroke: rgb(0, 0, 0); fill: rgb(112, 41, 33); stroke-width: 0;"/><text x="6" y="14" style="font-family: -apple-system, BlinkMacSystemFont, &quot;Segoe WPC&quot;, &quot;Segoe UI&quot;, Ubuntu, &quot;Droid Sans&quot;, sans-serif, &quot;PingFang SC&quot;; font-size: 11px; text-rendering: geometricprecision; fill: rgb(255, 255, 255);">ReLU</text></g><line class="node" x1="0" x2="97.734375" y1="53" y2="53" style="stroke: rgb(51, 51, 51); fill: none; stroke-width: 1px;"/><path class="node border" d="M5,0h87.734375a5,5 0 0 1 5,5v64a5,5 0 0 1 -5,5h-87.734375a5,5 0 0 1 -5,-5v-64a5,5 0 0 1 5,-5z" style="stroke: rgb(51, 51, 51); fill: none; stroke-width: 1px;"/></g><g id="node-name-batch_normalization_20" class="node graph-node" transform="translate(1167.171890258789,0)" style="opacity: 1;"><g class="node-item node-item-type node-item-type-normalization" transform="translate(0,0)"><path d="M5,0h107.859375a5,5 0 0 1 5,5v16a0,0 0 0 1 0,0h-117.859375a0,0 0 0 1 0,0v-16a5,5 0 0 1 5,-5z" style="stroke: rgb(0, 0, 0); fill: rgb(51, 85, 68); stroke-width: 0;"/><text x="6" y="14" style="font-family: -apple-system, BlinkMacSystemFont, &quot;Segoe WPC&quot;, &quot;Segoe UI&quot;, Ubuntu, &quot;Droid Sans&quot;, sans-serif, &quot;PingFang SC&quot;; font-size: 11px; text-rendering: geometricprecision; fill: rgb(255, 255, 255);">BatchNormalization</text><title>batch_normalization_20</title></g><g class="node-attribute" transform="translate(0,21)"><path d="M0,0h117.859375a0,0 0 0 1 0,0v53a5,5 0 0 1 -5,5h-107.859375a5,5 0 0 1 -5,-5v-53a0,0 0 0 1 0,0z" style="stroke: rgb(0, 0, 0); fill: rgb(255, 255, 255); stroke-width: 0;"/><text id="initializer-batch_normalization_20/gamma:0" xml:space="preserve" x="6" y="12" style="font-family: -apple-system, BlinkMacSystemFont, &quot;Segoe WPC&quot;, &quot;Segoe UI&quot;, Ubuntu, &quot;Droid Sans&quot;, sans-serif, &quot;PingFang SC&quot;; font-size: 9px; font-weight: normal; text-rendering: geometricprecision;"><title>float32[256]</title><tspan style="font-weight: bold;">gamma</tspan><tspan>〈256〉</tspan></text><text id="initializer-batch_normalization_20/beta:0" xml:space="preserve" x="6" y="25" style="font-family: -apple-system, BlinkMacSystemFont, &quot;Segoe WPC&quot;, &quot;Segoe UI&quot;, Ubuntu, &quot;Droid Sans&quot;, sans-serif, &quot;PingFang SC&quot;; font-size: 9px; font-weight: normal; text-rendering: geometricprecision;"><title>float32[256]</title><tspan style="font-weight: bold;">beta</tspan><tspan>〈256〉</tspan></text><text id="initializer-batch_normalization_20/moving_mean:0" xml:space="preserve" x="6" y="38" style="font-family: -apple-system, BlinkMacSystemFont, &quot;Segoe WPC&quot;, &quot;Segoe UI&quot;, Ubuntu, &quot;Droid Sans&quot;, sans-serif, &quot;PingFang SC&quot;; font-size: 9px; font-weight: normal; text-rendering: geometricprecision;"><title>float32[256]</title><tspan style="font-weight: bold;">moving_mean</tspan><tspan>〈256〉</tspan></text><text id="initializer-batch_normalization_20/moving_variance:0" xml:space="preserve" x="6" y="51" style="font-family: -apple-system, BlinkMacSystemFont, &quot;Segoe WPC&quot;, &quot;Segoe UI&quot;, Ubuntu, &quot;Droid Sans&quot;, sans-serif, &quot;PingFang SC&quot;; font-size: 9px; font-weight: normal; text-rendering: geometricprecision;"><title>float32[256]</title><tspan style="font-weight: bold;">moving_variance</tspan><tspan>〈256〉</tspan></text><line class="node" x1="0" x2="117.859375" y1="0" y2="0" style="stroke: rgb(51, 51, 51); fill: none; stroke-width: 1px;"/></g><path class="node border" d="M5,0h107.859375a5,5 0 0 1 5,5v69a5,5 0 0 1 -5,5h-107.859375a5,5 0 0 1 -5,-5v-69a5,5 0 0 1 5,-5z" style="stroke: rgb(51, 51, 51); fill: none; stroke-width: 1px;"/></g><g id="node-name-dense_16" class="node graph-node" transform="translate(1305.031265258789,13)" style="opacity: 1;"><g class="node-item node-item-type node-item-type-layer" transform="translate(0,0)"><path d="M5,0h77.828125a5,5 0 0 1 5,5v16a0,0 0 0 1 0,0h-87.828125a0,0 0 0 1 0,0v-16a5,5 0 0 1 5,-5z" style="stroke: rgb(0, 0, 0); fill: rgb(51, 85, 136); stroke-width: 0;"/><text x="6" y="14" style="font-family: -apple-system, BlinkMacSystemFont, &quot;Segoe WPC&quot;, &quot;Segoe UI&quot;, Ubuntu, &quot;Droid Sans&quot;, sans-serif, &quot;PingFang SC&quot;; font-size: 11px; text-rendering: geometricprecision; fill: rgb(255, 255, 255);">Dense</text><title>dense_16</title></g><g class="node-attribute" transform="translate(0,21)"><path d="M0,0h87.828125a0,0 0 0 1 0,0v27a5,5 0 0 1 -5,5h-77.828125a5,5 0 0 1 -5,-5v-27a0,0 0 0 1 0,0z" style="stroke: rgb(0, 0, 0); fill: rgb(255, 255, 255); stroke-width: 0;"/><text id="initializer-dense_16/kernel:0" xml:space="preserve" x="6" y="12" style="font-family: -apple-system, BlinkMacSystemFont, &quot;Segoe WPC&quot;, &quot;Segoe UI&quot;, Ubuntu, &quot;Droid Sans&quot;, sans-serif, &quot;PingFang SC&quot;; font-size: 9px; font-weight: normal; text-rendering: geometricprecision;"><title>float32[256,10]</title><tspan style="font-weight: bold;">kernel</tspan><tspan>〈256×10〉</tspan></text><text id="initializer-dense_16/bias:0" xml:space="preserve" x="6" y="25" style="font-family: -apple-system, BlinkMacSystemFont, &quot;Segoe WPC&quot;, &quot;Segoe UI&quot;, Ubuntu, &quot;Droid Sans&quot;, sans-serif, &quot;PingFang SC&quot;; font-size: 9px; font-weight: normal; text-rendering: geometricprecision;"><title>float32[10]</title><tspan style="font-weight: bold;">bias</tspan><tspan>〈10〉</tspan></text><line class="node" x1="0" x2="87.828125" y1="0" y2="0" style="stroke: rgb(51, 51, 51); fill: none; stroke-width: 1px;"/></g><path class="node border" d="M5,0h77.828125a5,5 0 0 1 5,5v43a5,5 0 0 1 -5,5h-77.828125a5,5 0 0 1 -5,-5v-43a5,5 0 0 1 5,-5z" style="stroke: rgb(51, 51, 51); fill: none; stroke-width: 1px;"/></g><g class="node" transform="translate(1412.8593978881836,29)" style="opacity: 1;"><g class="node-item graph-item-output" transform="translate(0,0)"><path d="M5,0h50.3125a5,5 0 0 1 5,5v11a5,5 0 0 1 -5,5h-50.3125a5,5 0 0 1 -5,-5v-11a5,5 0 0 1 5,-5z" style="stroke: rgb(0, 0, 0); fill: rgb(238, 238, 238); stroke-width: 0;"/><text x="6" y="14" style="font-family: -apple-system, BlinkMacSystemFont, &quot;Segoe WPC&quot;, &quot;Segoe UI&quot;, Ubuntu, &quot;Droid Sans&quot;, sans-serif, &quot;PingFang SC&quot;; font-size: 11px; text-rendering: geometricprecision;">dense_16</text></g><path class="node border" d="M5,0h50.3125a5,5 0 0 1 5,5v11a5,5 0 0 1 -5,5h-50.3125a5,5 0 0 1 -5,-5v-11a5,5 0 0 1 5,-5z" style="stroke: rgb(51, 51, 51); fill: none; stroke-width: 1px;"/></g></g></g></svg>